<svg width="40" height="37" viewBox="0 0 40 37" fill="none" xmlns="http://www.w3.org/2000/svg">
<g clip-path="url(#clip0_6125_841)">
<path d="M30.0101 12.4197L29.904 12.3963C28.3686 12.0587 26.9796 11.2433 25.9363 10.0672C24.9637 8.97079 24.3382 7.61338 24.1347 6.16667H21.4926L21.4926 23.3912C21.4926 23.3915 21.4926 23.3918 21.4926 23.3921V23.3924H20.4926C20.4936 24.2011 20.24 24.9896 19.7679 25.6462C19.2958 26.3028 18.6291 26.7942 17.8622 27.0508C17.0953 27.3074 16.2671 27.3162 15.4949 27.076C14.7227 26.8358 14.0456 26.3586 13.5597 25.7122L30.0101 12.4197ZM30.0101 12.4197H30.0737C30.217 12.4471 30.3609 12.4703 30.5054 12.4893V15.039C28.7888 14.8707 27.1399 14.2551 25.727 13.2458L24.1457 12.1163V14.0595V23.391C24.1418 24.8683 23.699 26.3112 22.8734 27.5363C22.0475 28.7617 20.8761 29.714 19.5078 30.2721C18.1396 30.8303 16.6363 30.9691 15.189 30.6709C13.7422 30.3728 12.4166 29.6515 11.3805 28.5986C10.3705 27.5636 9.68398 26.2566 9.40506 24.8375C9.126 23.4177 9.26701 21.9474 9.81083 20.6066C10.3547 19.2657 11.2777 18.1126 12.4669 17.2883C13.6556 16.4643 15.0588 16.0048 16.5047 15.9658C16.6074 15.9635 16.7101 15.963 16.8128 15.9646V18.5282C16.7547 18.5264 16.6966 18.5256 16.6384 18.5259M30.0101 12.4197L12.7622 26.3156C12.2148 25.5954 11.8796 24.7365 11.7945 23.8358C11.7092 22.9342 11.8779 22.0268 12.2815 21.2161C12.6851 20.4054 13.3075 19.7238 14.0783 19.2484C14.8477 18.7738 15.7344 18.5236 16.6384 18.5259M16.6384 18.5259C16.6369 18.5259 16.6353 18.5259 16.6338 18.5259L16.6395 19.5259L16.643 18.5259C16.6415 18.5259 16.6399 18.5259 16.6384 18.5259Z" stroke="#F05528" stroke-width="2"/>
</g>
<defs>
<clipPath id="clip0_6125_841">
<rect y="0.5" width="40" height="36" rx="18" fill="white"/>
</clipPath>
</defs>
</svg>
