<svg width="267" height="325" viewBox="0 0 267 325" fill="none" xmlns="http://www.w3.org/2000/svg">
<mask id="mask0_2392_4398" style="mask-type:luminance" maskUnits="userSpaceOnUse" x="-122" y="21" width="370" height="304">
<path d="M238.663 58.9914C238.663 58.9914 234.812 48.6476 222.9 48.245L227.839 44.5078C227.839 44.5078 224.524 35.5201 211.36 35.502L215.464 32.4727C215.464 32.4727 210.173 17.0193 189.2 22.8419C178.332 25.8586 169.802 31.2566 158.049 43.8451C146.347 56.3791 128.931 47.0218 71.3474 90.2017C71.1234 90.3703 -121.871 226.976 -121.871 226.976L-52.9902 324.146L211.496 136.327C211.496 136.327 206.076 104.881 169.68 129.03C171.769 127.644 247.168 73.3222 247.168 73.3222C247.168 73.3222 243.706 62.1299 233.696 62.683" fill="white"/>
</mask>
<g mask="url(#mask0_2392_4398)">
<path d="M-70.36 300.093L-88.3587 274.302L243.787 41.1079L261.785 66.8999L-70.36 300.093Z" fill="#F9AD1D"/>
<path d="M-52.3353 325.888L-71.1845 298.897L259.31 66.6143L278.111 90.2963L-52.3353 325.888Z" fill="#F0442C"/>
<path d="M-88.3589 274.302L-106.357 248.51L225.79 15.3155L243.788 41.1082L-88.3589 274.302Z" fill="#89B1BF"/>
<path d="M-106.246 248.668L-124.244 222.875L207.901 -10.3189L225.9 15.4731L-106.246 248.668Z" fill="#F68BC9"/>
</g>
</svg>
