<svg width="331" height="686" viewBox="0 0 331 686" fill="none" xmlns="http://www.w3.org/2000/svg">
<g filter="url(#filter0_f_2392_4363)">
<mask id="mask0_2392_4363" style="mask-type:luminance" maskUnits="userSpaceOnUse" x="40" y="40" width="251" height="606">
<path d="M190.255 41.4274C190.255 41.4274 167.828 37.0457 152.651 51.6789L152.246 42.1287C152.246 42.1287 132.796 38.2828 116.758 54.8344L116.551 46.9665C116.551 46.9665 83.6083 39.8379 68.092 71.4297C60.0509 87.7997 58.939 103.35 66.2417 129.374C73.5126 155.285 36.2824 168.856 40.3315 279.854C40.3482 280.286 40 645.063 40 645.063H290.454L289.885 144.618C289.885 144.618 229.349 123.383 226.517 190.736C226.679 186.87 225.181 43.5094 225.181 43.5094C225.181 43.5094 201.771 37.8813 190.548 50.9722" fill="white"/>
</mask>
<g mask="url(#mask0_2392_4363)">
<path d="M228.071 645.465L161.941 645.107L165.809 19.0227L231.94 19.3824L228.071 645.465Z" fill="#F9AD1D"/>
<path d="M294.239 645.792L225.015 645.434L228.44 22.2418L291.928 19.7075L294.239 645.792Z" fill="#F0442C"/>
<path d="M161.94 645.108L95.8093 644.749L99.6776 18.663L165.81 19.0228L161.94 645.108Z" fill="#89B1BF"/>
<path d="M96.2129 644.751L30.0803 644.392L33.9484 18.3073L100.081 18.6652L96.2129 644.751Z" fill="#F68BC9"/>
</g>
<path d="M267.764 154.38C264.95 154.651 262.305 155.227 259.843 156.092C259.056 156.373 258.269 156.686 257.499 157.027C256.008 157.703 254.602 158.493 253.262 159.398C245.107 164.933 239.837 174.767 237.627 188.35C235.361 202.311 249.109 222.592 228.057 236.294C224.107 238.866 218.933 241.041 212.201 242.679C211.771 231.83 212.941 175.61 212.807 157.367C212.772 152.298 212.733 147.221 212.698 142.158C212.683 140.565 212.671 138.975 212.66 137.391C212.507 117.711 213.167 99.3062 212.789 81.8408C212.598 72.9773 212.362 64.5934 212.052 56.8925C202.71 58.0334 188.452 61.8211 184.846 82.5293C182.16 97.9546 194.901 120.321 188.821 136.79C186.848 142.129 182.494 146.505 179.082 149.746C178.98 147.181 178.876 144.63 178.775 142.087L178.774 142.009C178.739 141.162 178.703 140.314 178.67 139.469C177.886 119.793 177.123 100.605 176.362 81.5556C176.058 73.8439 175.749 66.1557 175.445 58.4694C161.33 59.2669 151.273 69.849 148.712 83.2342C148.506 85.6122 148.292 88.0901 148.076 90.6353C148.113 93.0097 148.383 95.4295 148.893 97.8584C149.377 100.16 150.079 102.476 151.018 104.773C152.86 109.28 154.163 113.384 154.906 117.202C157.336 129.697 153.743 139.131 143.222 149.584C142.739 150.062 142.242 150.545 141.731 151.027C141.559 151.187 141.39 151.35 141.214 151.514C141.11 148.878 141.003 146.243 140.901 143.607C140.847 142.225 140.788 140.839 140.733 139.455C140.088 123.306 139.447 107.172 138.802 90.9423C138.387 80.5891 137.975 70.1996 137.56 59.7393C135.194 60.2788 133.367 60.4132 131.748 61.109C114.024 68.7408 106.944 90.6898 114.994 112.842C115.935 115.435 116.675 117.918 117.211 120.309C120.227 133.787 116.7 144.43 105.444 155.934C104.173 124.076 102.937 93.0424 101.691 61.7449C91.4464 61.4687 85.6325 67.5764 80.9371 75.061C72.1641 89.0512 71.8476 104.149 77.665 119.366C82.3906 131.736 81.6286 143.524 77.171 155.757C73.1571 166.766 66.8089 185.205 62.3094 198.384C57.9422 211.169 55.7503 224.723 56.0232 238.356C56.338 254.008 58.1449 269.631 63.557 284.657C92.7275 365.615 158.937 382.73 185.944 390.327C221.183 400.239 276.823 400.895 276.957 396.533C277.744 370.3 277.493 190.249 279.134 156.01C274.562 154.391 273.189 153.863 267.764 154.38Z" fill="white"/>
</g>
<defs>
<filter id="filter0_f_2392_4363" x="0" y="0.812683" width="330.454" height="684.25" filterUnits="userSpaceOnUse" color-interpolation-filters="sRGB">
<feFlood flood-opacity="0" result="BackgroundImageFix"/>
<feBlend mode="normal" in="SourceGraphic" in2="BackgroundImageFix" result="shape"/>
<feGaussianBlur stdDeviation="20" result="effect1_foregroundBlur_2392_4363"/>
</filter>
</defs>
</svg>
