<svg width="149" height="55" viewBox="0 0 149 55" fill="none" xmlns="http://www.w3.org/2000/svg">
<g filter="url(#filter0_f_5843_1666)">
<mask id="mask0_5843_1666" style="mask-type:luminance" maskUnits="userSpaceOnUse" x="8" y="8" width="133" height="39">
<path d="M8.77738 39.3367C8.77738 39.3367 7.5664 37.2202 10.5485 35.3369L8.48072 35.5414C8.48072 35.5414 7.4206 33.7071 10.807 31.689L9.10493 31.8701C9.10493 31.8701 7.17657 28.779 13.8181 26.4273C17.2596 25.2086 20.6057 24.6996 26.3135 24.7583C31.9966 24.8168 34.4891 20.7691 58.5148 18.3267C58.6084 18.3172 137.404 8.93359 137.404 8.93359L140.357 33.8236L32.2434 46.5932C32.2434 46.5932 26.9424 41.1214 41.4586 39.1137C40.6254 39.229 9.63892 42.7543 9.63892 42.7543C9.63892 42.7543 8.14712 40.572 10.8427 39.1212" fill="white"/>
</mask>
<g mask="url(#mask0_5843_1666)">
<path d="M139.708 27.6141L138.851 21.0512L3.64936 37.4818L4.5068 44.0446L139.708 27.6141Z" fill="#F9AD1D"/>
<path d="M140.559 34.1812L139.666 27.3109L5.08318 43.6233L5.28431 49.9978L140.559 34.1812Z" fill="#F0442C"/>
<path d="M138.851 21.0511L137.994 14.4882L2.79194 30.9189L3.6494 37.4819L138.851 21.0511Z" fill="#89B1BF"/>
<path d="M137.999 14.5283L137.142 7.96528L1.93995 24.3959L2.79701 30.959L137.999 14.5283Z" fill="#F68BC9"/>
</g>
<path d="M34.0915 44.1446C34.1168 43.8581 34.21 43.5804 34.3678 43.3136C34.4193 43.2282 34.4775 43.1419 34.5422 43.0566C34.6706 42.8912 34.8248 42.7312 35.0044 42.5748C36.104 41.6225 38.1661 40.8468 41.0743 40.279C44.0635 39.696 48.6068 40.5425 51.3183 38.0992C51.8274 37.6407 52.2362 37.0707 52.5108 36.3597C50.1621 36.595 38.0311 38.1522 34.0887 38.6065C32.9933 38.7329 31.896 38.8592 30.8019 38.9855C30.4575 39.0248 30.114 39.0644 29.7717 39.1038C25.5186 39.5931 21.5506 40.1303 17.7732 40.5403C15.8563 40.7485 14.0424 40.94 12.3752 41.1065C12.5115 40.1489 13.1616 38.6349 17.5925 37.7457C20.893 37.0835 25.8749 37.7765 29.3607 36.7501C30.4908 36.4173 31.3849 35.8724 32.0447 35.4502C31.4894 35.5058 30.9372 35.5608 30.3866 35.616L30.3697 35.6179C30.1864 35.6361 30.0027 35.6543 29.8199 35.6726C25.5601 36.0991 21.4062 36.5149 17.2821 36.9276C15.6126 37.095 13.9482 37.2614 12.2842 37.4281C12.29 36.005 14.4574 34.7343 17.3187 34.1368C17.83 34.0553 18.3627 33.9705 18.91 33.8838C19.4234 33.8266 19.9493 33.7914 20.48 33.7799C20.9829 33.769 21.4915 33.7794 21.9986 33.8139C22.994 33.8814 23.8959 33.9057 24.7296 33.8817C27.4574 33.803 29.4529 33.2041 31.587 31.8906C31.6845 31.8304 31.783 31.7686 31.881 31.7055C31.9135 31.6842 31.9468 31.6633 31.9801 31.6416C31.4094 31.6988 30.8391 31.7557 30.2685 31.8131C29.9692 31.8432 29.6691 31.8729 29.3694 31.9029C25.8734 32.2527 22.3806 32.6025 18.867 32.9544C16.6256 33.1784 14.3764 33.4038 12.1118 33.6306C12.2005 33.3816 12.208 33.1966 12.3392 33.0179C13.7788 31.0609 18.4368 29.7948 23.3171 30.027C23.8882 30.0541 24.4334 30.064 24.9562 30.056C27.9032 30.0102 30.1609 29.387 32.5131 27.9735C25.6164 28.6637 18.8978 29.3363 12.1222 30.0146C11.9417 29.0035 13.1925 28.2692 14.754 27.6108C17.6727 26.3803 20.9306 25.9619 24.2862 26.1501C27.014 26.3027 29.5516 25.9248 32.1417 25.1683C34.4726 24.4872 38.381 23.3838 41.1746 22.5989C43.8851 21.8372 46.7873 21.2719 49.7353 20.9497C53.1203 20.5798 56.5166 20.3589 59.8262 20.5117C77.6588 21.3357 82.1366 27.477 84.0962 29.9662C86.6528 33.2142 87.4505 38.7269 86.5099 38.852C80.8524 39.6025 41.9545 44.1922 34.5775 45.2328C34.174 44.82 34.0436 44.697 34.0915 44.1446Z" fill="white"/>
</g>
<defs>
<filter id="filter0_f_5843_1666" x="0.323608" y="0.933594" width="148.033" height="53.6597" filterUnits="userSpaceOnUse" color-interpolation-filters="sRGB">
<feFlood flood-opacity="0" result="BackgroundImageFix"/>
<feBlend mode="normal" in="SourceGraphic" in2="BackgroundImageFix" result="shape"/>
<feGaussianBlur stdDeviation="4" result="effect1_foregroundBlur_5843_1666"/>
</filter>
</defs>
</svg>
