<svg width="182" height="17" viewBox="0 0 182 17" fill="none" xmlns="http://www.w3.org/2000/svg">
<path d="M69.8574 0.5V5.2494H59.2033V0.5H57V16.5H59.2033V7.36867H69.8574V16.5H72V0.5H69.8574Z" fill="#373737"/>
<path d="M12.3872 0.5L0 0.505257V16.5H2.17394V7.37093H12.382C14.3617 7.37093 15.9632 5.87426 16 3.96381C15.9685 2.04285 14.3617 0.5 12.3872 0.5ZM13.742 5.41955H2.17394V2.45138H13.7368V5.41955H13.742Z" fill="#373737"/>
<path d="M25 0.5H23V16.5H25V0.5Z" fill="#373737"/>
<path d="M83 0.5H81V16.5H83V0.5Z" fill="#373737"/>
<path d="M35.6555 7.31274H45.6562C47.5 7.31274 49 5.82633 49 3.98782C49 2.06261 47.428 0.5 45.4919 0.5H33V2.43534H46.8426V5.37215H36.652C34.9159 5.37215 33.5137 6.7711 33.5137 8.49212C33.5137 10.2184 34.921 11.6125 36.652 11.6125H46.8373V14.5493H33V16.5H45.4557C47.4126 16.5 49 14.922 49 12.9761V12.8996C49 11.1275 47.5513 9.68726 45.7689 9.68726H35.6555V7.31274Z" fill="#373737"/>
<path d="M134.142 8.50019V7.31067H144.456C146.413 7.31067 148 6.04422 148 4.09934V3.98676C148 2.04187 146.413 0.5 144.456 0.5H132V8.50019V16.5H144.456C146.413 16.5 148 14.9585 148 13.0132V12.901C148 10.9558 146.413 9.68971 144.456 9.68971H134.142V8.50019ZM134.142 2.46027H145.843V5.37066H134.142V2.46027ZM145.843 11.6297V14.5397H134.142V11.6297H145.843Z" fill="#373737"/>
<path d="M168.857 0.5V5.2494H158.203V0.5H156V16.5H158.203V7.36867H168.857V16.5H171V0.5H168.857Z" fill="#373737"/>
<path d="M111.387 0.5L99 0.505257V16.5H101.174V7.36605H111.382C113.362 7.36605 114.963 5.869 115 3.95855C114.968 2.04285 113.362 0.5 111.387 0.5ZM112.742 5.41955H101.179V2.45138H112.742V5.41955Z" fill="#373737"/>
<path d="M124 0.5H122V16.5H124V0.5Z" fill="#373737"/>
<path d="M182 0.5H180V16.5H182V0.5Z" fill="#373737"/>
</svg>
