<svg width="24" height="24" viewBox="0 0 24 24" fill="none" xmlns="http://www.w3.org/2000/svg">
<g clip-path="url(#clip0_5860_60)">
<path d="M0.375 12C0.375 5.57812 5.57813 0.375 12 0.375C18.4219 0.375 23.625 5.57812 23.625 12C23.625 18.4219 18.4219 23.625 12 23.625C5.57812 23.625 0.375 18.4219 0.375 12ZM14.0625 17.4375L14.0625 12L17.3859 12C17.8875 12 18.1406 11.3906 17.7844 11.0391L12.3984 5.68125C12.1781 5.46094 11.8266 5.46094 11.6063 5.68125L6.22031 11.0391C5.86406 11.3953 6.11719 12 6.61875 12H9.9375L9.9375 17.4375C9.9375 17.7469 10.1906 18 10.5 18H13.5C13.8094 18 14.0625 17.7469 14.0625 17.4375Z" fill="white"/>
</g>
<defs>
<clipPath id="clip0_5860_60">
<rect width="24" height="24" fill="white" transform="matrix(-1 0 0 -1 24 24)"/>
</clipPath>
</defs>
</svg>
