<svg width="619" height="305" viewBox="0 0 619 305" fill="none" xmlns="http://www.w3.org/2000/svg">
<g filter="url(#filter0_f_2392_4374)">
<mask id="mask0_2392_4374" style="mask-type:luminance" maskUnits="userSpaceOnUse" x="34" y="34" width="647" height="237">
<path d="M38.5133 59.5528C38.5133 59.5528 31.5427 69.4203 45.2445 80.1369L35.2059 78.1413C35.2059 78.1413 29.1128 86.6883 44.7307 98.2634L36.474 96.5574C36.474 96.5574 25.5104 110.893 56.9251 125.667C73.2031 133.323 89.3605 137.431 117.374 139.864C145.266 142.286 155.51 163.451 272.113 186.965C272.568 187.056 654.311 270.952 654.311 270.952L680.941 149.526L157.107 34.9348C157.107 34.9348 128.445 59.4102 198.637 76.2425C194.608 75.2765 44.4058 43.0977 44.4058 43.0977C44.4058 43.0977 36.0263 53.1557 48.5341 61.6015" fill="white"/>
</mask>
<g mask="url(#mask0_2392_4374)">
<path d="M674.727 179.863L667.322 211.843L12.4636 66.2625L19.8715 34.2831L674.727 179.863Z" fill="#F9AD1D"/>
<path d="M682.105 147.858L674.371 181.337L22.4923 36.6361L26.5904 5.27355L682.105 147.858Z" fill="#F0442C"/>
<path d="M667.322 211.843L659.916 243.823L5.0563 98.242L12.4643 66.2618L667.322 211.843Z" fill="#89B1BF"/>
<path d="M659.96 243.627L652.552 275.607L-2.30573 130.027L5.10043 98.0466L659.96 243.627Z" fill="#F68BC9"/>
</g>
<path d="M164.973 47.9006C164.957 49.3267 165.278 50.7416 165.922 52.1335C166.133 52.5797 166.376 53.033 166.652 53.4849C167.2 54.3625 167.878 55.2259 168.682 56.083C173.609 61.3073 183.34 66.1193 197.322 70.3087C211.693 74.6116 234.381 72.6014 246.483 85.9529C248.755 88.4585 250.481 91.4663 251.48 95.1061C240.079 92.8246 181.363 79.3529 162.255 75.2305C156.947 74.0842 151.628 72.9375 146.326 71.7924C144.657 71.434 142.992 71.0748 141.332 70.7169C120.719 66.2736 101.526 61.7294 83.2067 57.9041C73.9097 55.9622 65.1098 54.1522 57.0171 52.5349C57.2178 57.3261 59.6662 65.1077 80.9561 71.6096C96.8149 76.4524 121.579 75.4087 138.168 82.1365C143.547 84.3184 147.664 87.4337 150.693 89.8322C147.998 89.2929 145.317 88.7578 142.645 88.2228L142.563 88.2056C141.673 88.0284 140.781 87.8507 139.894 87.6731C119.217 83.5367 99.0534 79.5028 79.0351 75.499C70.9315 73.8767 62.8522 72.2613 54.7752 70.6449C54.1091 77.6711 64.1152 84.976 77.852 89.2896C80.319 89.9353 82.8896 90.608 85.5304 91.2969C88.0194 91.8241 90.5807 92.2487 93.1771 92.5586C95.6376 92.8523 98.1364 93.0438 100.64 93.1154C105.553 93.2569 109.986 93.5672 114.062 94.0833C127.398 95.7732 136.889 99.6808 146.711 107.181C147.16 107.524 147.613 107.877 148.062 108.235C148.211 108.355 148.365 108.474 148.517 108.597C145.747 108.043 142.979 107.49 140.209 106.934C138.756 106.643 137.299 106.353 135.845 106.062C118.875 102.668 101.921 99.2762 84.8658 95.8635C73.9858 93.6885 63.0682 91.5035 52.0761 89.3039C52.3892 90.5749 52.3357 91.4915 52.8917 92.4362C58.9948 102.781 81.2142 111.251 105.255 112.433C108.068 112.572 110.746 112.783 113.305 113.072C127.732 114.703 138.497 118.856 149.34 126.954C115.862 120.258 83.2503 113.734 50.3614 107.154C48.9832 112.058 54.7573 116.278 62.0916 120.273C75.8011 127.737 91.5696 131.356 108.114 132.028C121.563 132.577 133.819 135.652 146.149 140.621C157.244 145.094 175.868 152.404 189.182 157.61C202.1 162.662 216.052 166.836 230.349 169.833C246.765 173.273 263.308 175.983 279.61 176.808C367.443 181.247 392.395 153.075 403.218 141.726C417.339 126.916 423.941 100.091 419.39 99.0246C392.019 92.6218 203.547 51.4165 167.887 42.7621C165.707 44.607 165.008 45.1514 164.973 47.9006Z" fill="white"/>
</g>
<defs>
<filter id="filter0_f_2392_4374" x="0.0354614" y="0.934814" width="714.905" height="304.017" filterUnits="userSpaceOnUse" color-interpolation-filters="sRGB">
<feFlood flood-opacity="0" result="BackgroundImageFix"/>
<feBlend mode="normal" in="SourceGraphic" in2="BackgroundImageFix" result="shape"/>
<feGaussianBlur stdDeviation="17" result="effect1_foregroundBlur_2392_4374"/>
</filter>
</defs>
</svg>
