<svg width="40" height="37" viewBox="0 0 40 37" fill="none" xmlns="http://www.w3.org/2000/svg">
<g clip-path="url(#clip0_6125_835)">
<path d="M14.4 6.16667H25.6C29.3143 6.16667 32.3333 9.18562 32.3333 12.9V24.1C32.3333 25.8858 31.6239 27.5984 30.3611 28.8612C29.0984 30.1239 27.3858 30.8333 25.6 30.8333H14.4C10.6856 30.8333 7.66663 27.8144 7.66663 24.1V12.9C7.66663 11.1142 8.37603 9.40156 9.63877 8.13881C10.9015 6.87607 12.6142 6.16667 14.4 6.16667ZM14.1333 6.83333C12.595 6.83333 11.1198 7.4444 10.0321 8.53211C8.94436 9.61982 8.33329 11.0951 8.33329 12.6333V24.3667C8.33329 27.5723 10.9277 30.1667 14.1333 30.1667H25.8666C27.4049 30.1667 28.8801 29.5556 29.9678 28.4679C31.0556 27.3802 31.6666 25.9049 31.6666 24.3667V12.6333C31.6666 9.42771 29.0722 6.83333 25.8666 6.83333H14.1333ZM27 10.8333C27.1768 10.8333 27.3463 10.9036 27.4714 11.0286L28.1785 10.3215L27.4714 11.0286C27.5964 11.1536 27.6666 11.3232 27.6666 11.5C27.6666 11.6768 27.5964 11.8464 27.4714 11.9714L28.1785 12.6785L27.4714 11.9714C27.3463 12.0964 27.1768 12.1667 27 12.1667C26.8231 12.1667 26.6536 12.0964 26.5286 11.9714L25.8214 12.6785L26.5286 11.9714C26.4035 11.8464 26.3333 11.6768 26.3333 11.5C26.3333 11.3232 26.4035 11.1536 26.5286 11.0286L25.8214 10.3215L26.5286 11.0286C26.6536 10.9036 26.8231 10.8333 27 10.8333ZM20 12.8333C21.5029 12.8333 22.9442 13.4304 24.0069 14.4931C25.0696 15.5558 25.6666 16.9971 25.6666 18.5C25.6666 20.0029 25.0696 21.4442 24.0069 22.5069C22.9442 23.5696 21.5029 24.1667 20 24.1667C18.4971 24.1667 17.0557 23.5696 15.993 22.5069C14.9303 21.4442 14.3333 20.0029 14.3333 18.5C14.3333 16.9971 14.9303 15.5558 15.993 14.4931C17.0557 13.4304 18.4971 12.8333 20 12.8333ZM20 13.5C18.6739 13.5 17.4021 14.0268 16.4644 14.9645C15.5267 15.9021 15 17.1739 15 18.5C15 19.8261 15.5267 21.0979 16.4644 22.0355C17.4021 22.9732 18.6739 23.5 20 23.5C21.326 23.5 22.5978 22.9732 23.5355 22.0355C24.4732 21.0979 25 19.8261 25 18.5C25 17.1739 24.4732 15.9021 23.5355 14.9645C22.5978 14.0268 21.326 13.5 20 13.5Z" stroke="#F05528" stroke-width="2"/>
</g>
<defs>
<clipPath id="clip0_6125_835">
<rect y="0.5" width="40" height="36" rx="18" fill="white"/>
</clipPath>
</defs>
</svg>
